<?xml version="1.0" standalone="no"?>
<!DOCTYPE svg PUBLIC "-//W3C//DTD SVG 20010904//EN"
 "http://www.w3.org/TR/2001/REC-SVG-20010904/DTD/svg10.dtd">
<svg version="1.0" xmlns="http://www.w3.org/2000/svg"
 width="1878.000000pt" height="1023.000000pt" viewBox="0 0 1878.000000 1023.000000"
 preserveAspectRatio="xMidYMid meet">

<g transform="translate(0.000000,1023.000000) scale(0.100000,-0.100000)"
fill="#000000" stroke="none">
<path d="M5986 8924 c-13 -33 -5 -72 30 -154 21 -51 37 -105 38 -135 2 -27 6
-81 10 -120 l7 -70 -36 58 c-20 31 -40 57 -45 57 -4 0 -17 16 -29 35 -22 39
-56 47 -66 16 -3 -10 4 -43 16 -72 18 -46 20 -67 16 -139 -6 -88 -24 -180 -36
-180 -4 0 -13 28 -19 62 -20 106 -83 172 -112 118 -6 -11 -8 -20 -4 -20 4 0
-14 -22 -39 -49 -51 -54 -110 -142 -122 -181 -4 -14 -19 -50 -33 -80 -79 -173
-118 -369 -107 -533 13 -211 48 -346 104 -404 117 -122 356 -78 546 99 84 78
219 275 265 388 41 100 63 265 64 475 1 151 -2 178 -22 244 -30 96 -130 295
-195 389 -47 68 -193 212 -215 212 -5 0 -13 -7 -16 -16z"/>
<path d="M5003 7216 c-282 -105 -843 -621 -1546 -1424 -456 -520 -1012 -1213
-1123 -1399 -22 -37 -60 -115 -84 -173 -66 -163 -112 -257 -199 -414 -259
-464 -319 -524 -691 -690 -348 -156 -647 -401 -837 -686 -69 -102 -117 -202
-161 -328 -45 -131 -51 -248 -17 -317 41 -83 158 -174 208 -161 41 10 50 37
36 104 -7 32 -9 73 -5 92 7 37 32 77 41 68 3 -3 10 -41 15 -84 5 -44 13 -90
18 -104 10 -25 59 -80 72 -80 9 0 45 120 71 240 32 143 55 194 142 324 102
150 174 239 239 294 45 38 53 41 61 26 12 -21 15 -9 -138 -479 -68 -209 -129
-400 -135 -423 -40 -155 -58 -367 -41 -487 24 -165 123 -301 279 -378 l85 -42
116 0 c139 1 221 26 246 75 20 39 9 64 -50 108 -29 21 -60 56 -73 82 -22 42
-23 53 -19 170 16 394 244 973 685 1740 156 273 174 288 387 332 386 78 793
116 1062 98 339 -23 423 -46 423 -115 0 -13 -31 -149 -69 -302 -223 -895 -352
-1608 -381 -2099 -13 -212 -9 -234 44 -234 18 0 39 7 46 15 7 8 18 68 26 132
49 428 63 498 235 1208 108 445 130 515 170 551 20 18 20 18 15 -6 -4 -14 -40
-182 -80 -375 -65 -307 -93 -452 -136 -690 -34 -195 -78 -775 -58 -775 3 0 13
42 23 93 92 513 267 1192 497 1934 l82 263 44 -26 c65 -38 96 -45 122 -27 33
23 23 88 -23 155 -46 68 -60 128 -46 203 6 31 187 572 403 1203 518 1511 579
1699 681 2102 42 162 55 299 33 340 -23 45 -91 70 -188 70 -47 0 -102 5 -123
11 -44 12 -60 41 -71 128 -8 63 -24 96 -63 133 -57 54 -146 63 -250 24z m169
-193 c20 -18 23 -63 7 -114 -35 -113 -38 -116 -142 -203 -56 -46 -185 -161
-287 -256 -102 -95 -232 -211 -290 -257 -100 -81 -180 -132 -180 -116 1 9 65
94 177 232 45 55 87 110 93 122 7 11 -136 -102 -317 -253 -180 -151 -334 -278
-342 -283 -28 -16 232 281 388 444 347 365 755 701 850 701 13 0 33 -7 43 -17z
m252 -319 c17 -45 4 -122 -53 -297 -189 -577 -411 -1274 -547 -1712 -143 -459
-218 -665 -244 -665 -5 0 -11 9 -15 19 -6 19 80 317 225 786 66 215 82 283 95
415 6 59 65 339 161 765 41 182 117 421 162 510 35 69 85 124 151 166 54 33
57 34 65 13z m-522 -621 c-261 -815 -377 -1225 -521 -1848 -53 -227 -102 -408
-151 -555 -21 -63 -48 -147 -59 -185 -34 -118 -60 -131 -196 -100 -200 47
-255 50 -824 50 -423 0 -545 3 -548 12 -8 23 69 166 171 317 373 555 1322
1690 1891 2261 138 139 294 279 302 271 3 -2 -27 -102 -65 -223z m-112 -682
c0 -10 -7 -24 -15 -31 -13 -10 -15 -9 -15 12 0 14 3 28 7 31 12 13 23 7 23
-12z m-227 -628 c-7 -2 -19 -2 -25 0 -7 3 -2 5 12 5 14 0 19 -2 13 -5z m-53
-1011 c0 -33 -7 -56 -26 -84 -15 -21 -28 -37 -30 -36 -6 7 41 176 48 172 4 -3
8 -26 8 -52z m-282 -1023 c-9 -27 -12 -29 -20 -15 -12 22 -3 46 16 46 12 0 13
-5 4 -31z m-2829 -1360 c-11 -97 -7 -353 6 -454 l6 -40 -30 34 c-53 60 -64 95
-59 185 5 73 76 392 85 382 3 -2 -1 -50 -8 -107z"/>
<path d="M8473 6001 c-36 -22 -87 -89 -200 -259 -103 -157 -87 -152 -420 -152
-389 0 -898 -41 -931 -74 -20 -20 -34 -20 273 -1 355 22 669 34 760 27 73 -5
76 -6 40 -13 -22 -4 -74 -8 -116 -8 -77 -1 -654 -48 -934 -77 -351 -35 -681
-102 -1025 -206 -153 -46 -184 -64 -200 -113 -14 -44 -3 -67 47 -90 67 -33
125 -30 263 10 479 141 1092 248 1710 300 221 19 273 18 278 -6 1 -9 -53 -130
-121 -270 -188 -383 -298 -659 -369 -916 l-33 -122 -75 6 c-72 5 -273 -11
-700 -56 -96 -10 -176 -18 -177 -17 -1 1 33 55 77 119 104 154 117 216 50 250
-30 16 -53 18 -165 14 -118 -4 -139 -8 -225 -39 -157 -58 -320 -126 -417 -175
-105 -52 -157 -64 -215 -51 -38 8 -47 5 -166 -58 -211 -110 -362 -215 -382
-264 -17 -41 -5 -94 30 -128 41 -41 134 -92 168 -92 27 0 364 72 562 119 127
31 144 29 201 -24 68 -64 83 -61 178 29 96 92 137 113 254 131 50 7 115 19
142 24 103 22 420 61 497 61 100 0 99 -7 -9 -105 -348 -314 -627 -653 -799
-974 -56 -105 -61 -111 -99 -121 -66 -17 -70 -22 -69 -83 1 -66 32 -125 95
-181 87 -79 186 -101 301 -66 133 40 261 122 482 308 60 51 110 91 112 90 1
-2 -6 -41 -17 -87 -66 -282 -74 -564 -20 -686 29 -66 105 -141 175 -175 200
-95 397 -43 635 169 89 79 402 407 560 586 110 124 339 406 358 439 7 13 15
14 48 5 61 -17 212 -5 497 40 282 45 384 50 488 23 51 -13 68 -22 77 -43 16
-34 0 -94 -30 -114 -13 -8 -96 -42 -185 -75 -236 -87 -359 -139 -522 -219
-143 -71 -160 -83 -160 -110 0 -11 15 -13 75 -8 41 3 77 2 80 -2 2 -5 -75 -46
-172 -92 -328 -156 -498 -264 -632 -404 -58 -60 -92 -106 -114 -153 -75 -159
-17 -287 137 -299 237 -19 702 237 1273 703 199 162 276 247 374 409 62 102
122 167 171 182 l33 10 -42 12 c-24 6 -43 16 -43 21 0 5 17 18 38 29 39 20
393 133 399 127 5 -4 -43 -222 -78 -356 -17 -63 -77 -257 -134 -430 -226 -685
-280 -885 -345 -1275 -23 -137 -59 -332 -81 -432 -34 -161 -39 -198 -39 -315
0 -73 4 -138 8 -144 13 -20 53 -36 76 -30 24 6 48 47 65 112 9 32 18 45 41 54
70 29 78 48 210 520 144 512 321 1005 507 1411 97 210 122 244 152 199 28 -45
72 -79 107 -86 20 -4 46 -19 62 -37 70 -79 91 -96 130 -107 107 -28 371 61
592 200 292 183 521 445 703 805 75 149 90 205 90 340 0 262 -94 414 -294 476
-33 11 -97 35 -142 55 -155 69 -290 57 -462 -41 -109 -63 -194 -129 -379 -300
-87 -80 -160 -144 -163 -141 -9 9 21 136 73 302 39 127 54 191 54 232 0 110
-14 92 -90 -115 -187 -509 -231 -623 -264 -693 l-36 -75 4 65 c3 36 19 106 36
155 18 50 50 176 72 280 22 105 55 229 73 276 32 83 33 90 30 214 -3 143 -4
145 -73 145 -33 0 -49 -6 -64 -23 -25 -28 -213 -496 -294 -732 -31 -88 -72
-223 -93 -299 l-38 -139 -79 -19 c-43 -10 -146 -37 -227 -59 -191 -51 -212
-50 -254 16 -52 81 -85 116 -144 155 -139 90 -367 120 -644 85 -199 -25 -234
-19 -209 35 9 20 305 349 368 409 22 21 45 60 61 102 44 114 178 222 277 222
49 0 65 -16 114 -105 21 -40 57 -92 80 -115 33 -35 47 -43 77 -43 40 0 71 23
87 66 16 41 11 144 -9 209 -13 41 -16 67 -10 83 5 13 9 25 9 26 0 2 -23 6 -51
9 -29 4 -69 18 -93 32 -22 15 -65 42 -95 60 -61 39 -144 60 -200 50 -169 -28
-561 -333 -782 -608 -85 -105 -203 -276 -238 -344 -32 -65 -28 -92 29 -165 27
-36 53 -80 56 -99 4 -19 12 -43 19 -55 12 -19 6 -28 -66 -103 l-79 -83 -31 26
c-31 27 -57 24 -76 -7 -13 -21 -198 -185 -343 -303 -574 -468 -551 -450 -601
-464 -23 -7 -31 -5 -39 10 -43 81 71 723 221 1245 111 384 279 855 441 1240
142 334 304 678 342 723 26 30 32 32 89 32 34 -1 80 -5 102 -9 132 -29 143
-30 181 -19 l38 10 -39 23 c-21 13 -75 33 -119 45 -141 37 -151 43 -150 84 2
49 51 145 125 241 73 96 91 128 83 150 -9 23 -55 44 -79 35 -38 -14 -101 -95
-169 -215 -37 -66 -76 -128 -88 -137 -27 -24 -71 -23 -92 1 -15 16 -16 23 -5
43 24 45 94 144 156 221 92 114 83 160 -33 173 -38 4 -56 1 -81 -15z m-85
-622 c17 -6 33 -17 36 -25 3 -8 -66 -178 -153 -377 -229 -523 -335 -783 -452
-1107 -51 -144 -157 -467 -178 -546 -10 -37 -14 -41 -36 -36 -14 2 -25 10 -25
16 0 12 72 250 154 506 25 80 62 215 81 300 43 191 46 199 105 335 27 61 52
124 56 140 4 17 20 57 36 90 31 66 34 92 16 141 -11 31 -6 43 112 276 127 251
141 275 175 289 28 11 37 11 73 -2z m-1948 -1196 c0 -25 -72 -127 -126 -179
-108 -107 -259 -166 -429 -168 -93 -1 -185 10 -185 22 0 12 157 106 265 160
204 101 475 195 475 165z m5870 -373 c27 -15 43 -74 43 -165 0 -95 -14 -158
-61 -280 -137 -356 -397 -659 -752 -874 -80 -49 -122 -62 -135 -41 -11 18 72
124 209 267 75 78 136 146 136 151 0 12 -43 31 -88 38 -64 10 -110 -11 -317
-145 -109 -71 -203 -127 -207 -125 -22 14 1 65 92 204 342 519 683 862 948
955 75 26 105 30 132 15z m-4914 -212 c-49 -189 -153 -530 -163 -537 -70 -50
-598 -400 -631 -417 -25 -13 -58 -24 -74 -24 -28 0 -29 2 -23 33 42 200 411
649 855 1040 36 31 66 53 68 47 2 -5 -12 -69 -32 -142z m5048 -8 c0 -36 -3
-78 -8 -95 l-9 -30 -7 30 c-10 40 -11 121 -3 169 6 38 7 38 16 15 5 -13 10
-53 11 -89z m-983 -142 c-59 -90 -312 -516 -406 -683 -59 -105 -109 -192 -112
-195 -7 -7 6 64 28 155 37 148 152 357 283 510 71 84 218 245 224 245 2 0 -6
-15 -17 -32z m-1726 -297 c30 -5 6 -9 -100 -14 -77 -4 -221 -16 -319 -27 -99
-11 -193 -19 -210 -19 -33 1 102 31 244 53 93 15 321 19 385 7z m-2167 -98
c-63 -246 -111 -517 -134 -747 -22 -230 -28 -269 -40 -273 -19 -6 -27 151 -14
287 15 160 51 381 95 578 19 85 35 157 35 160 0 4 72 72 76 72 1 0 -7 -35 -18
-77z m4031 -225 c-7 -13 -38 -50 -69 -83 -78 -83 -176 -205 -239 -298 -56 -81
-88 -101 -140 -87 -85 22 -41 100 158 277 83 75 274 212 294 213 4 0 2 -10 -4
-22z m461 -148 c35 -35 25 -54 -69 -133 -168 -141 -299 -216 -455 -261 -159
-46 -171 -8 -23 71 112 60 256 157 325 218 140 125 183 144 222 105z m-2449
-212 c-33 -40 -87 -108 -121 -151 -69 -88 -100 -112 -380 -292 -376 -241 -552
-338 -605 -333 -44 4 -46 50 -4 128 90 169 420 396 909 626 154 72 190 86 248
93 7 0 -14 -32 -47 -71z m1105 -233 c-31 -90 -35 -96 -35 -60 -1 52 16 113 42
149 32 46 30 20 -7 -89z m709 -27 c33 -15 32 -25 -5 -33 -30 -7 -100 19 -100
36 0 13 75 11 105 -3z"/>
<path d="M13743 4681 c-61 -29 -142 -108 -169 -166 -56 -118 -9 -262 100 -314
70 -32 157 -29 232 9 151 75 288 296 228 367 -11 11 -68 42 -129 68 -133 56
-199 66 -262 36z"/>
<path d="M15045 4340 c-74 -15 -379 -135 -521 -206 -110 -55 -155 -66 -212
-53 -39 8 -48 6 -131 -36 -207 -104 -400 -234 -421 -285 -17 -41 -5 -93 30
-128 41 -41 134 -92 168 -92 29 0 182 32 479 100 94 22 186 40 204 40 24 0 44
-11 80 -45 68 -64 83 -61 178 29 42 40 96 83 118 94 102 52 826 148 848 112 5
-9 -19 -37 -76 -89 -378 -343 -655 -686 -831 -1027 -30 -58 -37 -65 -73 -74
-66 -17 -70 -22 -69 -83 3 -125 125 -243 271 -263 93 -12 237 45 393 155 62
43 246 194 375 307 l61 53 0 -112 c1 -125 19 -191 75 -279 105 -163 345 -272
557 -254 281 25 685 256 1197 682 158 132 370 341 378 372 5 19 1 22 -28 22
-18 0 -41 -3 -50 -6 -9 -4 -82 -60 -163 -126 -165 -134 -282 -199 -392 -218
-86 -14 -120 -28 -227 -93 -136 -82 -579 -293 -700 -333 -127 -42 -153 -38
-180 23 -34 80 -9 355 42 452 25 50 54 62 172 71 133 11 197 26 339 83 114 45
212 95 274 141 162 120 322 363 324 493 1 44 -3 56 -29 84 -36 38 -73 55 -166
74 -51 11 -86 26 -121 52 -66 48 -109 62 -193 62 -253 1 -584 -182 -785 -434
-115 -145 -212 -312 -236 -408 -20 -82 16 -52 -397 -329 -329 -220 -376 -248
-419 -248 -28 0 -29 2 -23 33 11 50 68 164 130 256 167 250 529 628 840 878
104 84 110 91 113 129 2 32 -2 44 -25 66 -37 35 -110 58 -183 58 -60 0 -334
-25 -660 -60 -96 -10 -176 -17 -177 -16 -1 1 33 55 77 119 104 154 117 216 50
249 -27 14 -58 18 -140 17 -58 -1 -123 -5 -145 -9z m55 -157 c0 -25 -72 -127
-126 -179 -108 -107 -259 -166 -429 -168 -93 -1 -185 10 -185 22 0 12 157 106
265 160 204 101 475 195 475 165z m2019 -219 c77 -39 77 -38 -219 -74 -66 -8
-96 -20 -243 -95 -93 -48 -171 -85 -173 -82 -6 6 61 72 119 119 109 85 290
156 403 157 46 1 73 -5 113 -25z m126 -185 c16 -8 32 -25 36 -39 l6 -25 11 28
c12 29 48 37 70 15 35 -35 -21 -179 -86 -223 -20 -14 -41 -25 -46 -25 -9 0 -2
82 10 115 4 11 -25 -15 -66 -58 -151 -161 -305 -263 -474 -311 -96 -28 -114
-30 -135 -17 -12 8 -8 23 22 84 95 201 234 339 441 438 68 33 89 39 131 36 28
-2 63 -10 80 -18z m-981 -813 c-11 -52 -47 -117 -56 -103 -15 24 -8 74 19 127
25 50 27 52 35 30 5 -13 6 -38 2 -54z m-64 -292 c-7 -71 -13 -130 -15 -132 -9
-10 -36 153 -31 182 6 33 44 92 53 83 2 -3 -1 -63 -7 -133z"/>
<path d="M13434 3984 c-5 -1 -22 -5 -37 -8 -15 -4 -54 -30 -86 -59 -55 -49
-82 -70 -251 -194 -77 -57 -117 -113 -204 -288 -104 -211 -165 -395 -202 -613
-38 -223 16 -351 188 -436 95 -48 167 -62 243 -47 179 36 494 256 865 603 192
180 270 263 270 287 0 25 -42 61 -72 61 -31 0 -64 -22 -238 -158 -288 -226
-395 -299 -558 -381 -84 -42 -225 -101 -242 -101 -20 0 -9 62 36 202 121 377
242 620 439 878 40 52 77 105 84 117 15 29 14 78 -1 90 -22 17 -205 54 -234
47z m-342 -407 c-48 -96 -94 -130 -57 -41 17 41 75 118 83 110 3 -3 -9 -34
-26 -69z m-325 -970 c-2 -23 -3 -1 -3 48 0 50 1 68 3 42 2 -26 2 -67 0 -90z"/>
</g>
</svg>
